# xmcd
#
# Track frame offsets:
#	183
#	15803
#	27575
#
# Disc length: 610 seconds
#
# Revision: 3
# Processed by: cddbd v1.5.1PL0 Copyright (c) Steve Scherf et al.
# Submitted via: dBpowerAMP V4.0
#
DISCID=15026003
DTITLE=Michael Head - Somethin' Like You
DYEAR=1900
DGENRE=Indie
TTITLE0=Somethin' Like You
TTITLE1=Green Velvet Jacket
TTITLE2=Queen Matilda (Demo)
EXTD=
EXTT0=
EXTT1=
EXTT2=
PLAYORDER=
